<svg width="139" height="75" viewBox="0 0 139 75" fill="none" xmlns="http://www.w3.org/2000/svg">
<g filter="url(#filter0_d)">
<rect x="25" y="21.1555" width="23.8333" height="24.8444" rx="5" fill="white"/>
</g>
<rect x="38.8566" y="20" width="7.48256" height="6.54815" rx="3" fill="#7597FC"/>
<ellipse cx="33.4525" cy="29.3407" rx="0.69283" ry="0.481481" fill="#474747"/>
<ellipse cx="40.3808" cy="29.3407" rx="0.69283" ry="0.481481" fill="#474747"/>
<path d="M35.8094 30.7852C35.744 31.519 38.2301 31.5913 38.3023 30.7852" stroke="black" stroke-width="2"/>
<path d="M64.32 40C64.04 40 63.8333 39.94 63.7 39.82C63.58 39.6867 63.52 39.48 63.52 39.2V26.8C63.52 26.52 63.58 26.32 63.7 26.2C63.8333 26.0667 64.04 26 64.32 26H68.28C69.9067 26 71.1 26.3133 71.86 26.94C72.62 27.5667 73 28.4333 73 29.54C73 30.2067 72.7933 30.82 72.38 31.38C71.98 31.9267 71.4667 32.3267 70.84 32.58L70.86 32.66C71.6467 32.82 72.2933 33.2133 72.8 33.84C73.3067 34.4667 73.56 35.1667 73.56 35.94C73.56 37.2467 73.14 38.2533 72.3 38.96C71.4733 39.6533 70.2267 40 68.56 40H64.32ZM67.98 31.58C68.5667 31.58 69.02 31.44 69.34 31.16C69.6733 30.88 69.84 30.52 69.84 30.08C69.84 29.0933 69.2333 28.6 68.02 28.6H66.6V31.58H67.98ZM68.56 37.38C69.1467 37.38 69.6 37.24 69.92 36.96C70.24 36.68 70.4 36.28 70.4 35.76C70.4 35.24 70.2133 34.8533 69.84 34.6C69.4667 34.3333 68.9333 34.2 68.24 34.2H66.6V37.38H68.56ZM83.0755 40.04C82.2621 40.04 81.8555 39.8933 81.8555 39.6C81.8555 39.5467 81.8821 39.4267 81.9355 39.24L86.3355 26.38C86.4421 26.1 86.8221 25.96 87.4755 25.96H88.5155C89.1821 25.96 89.5621 26.1 89.6555 26.38L94.0555 39.24C94.0955 39.3733 94.1155 39.4933 94.1155 39.6C94.1155 39.8933 93.7821 40.04 93.1155 40.04H92.2355C91.5821 40.04 91.2088 39.9 91.1155 39.62L90.3155 37.18H85.5955L84.7955 39.62C84.7021 39.9 84.3955 40.04 83.8755 40.04H83.0755ZM89.4555 34.54L88.3155 30.98C88.2221 30.7133 88.1221 30.2867 88.0155 29.7H87.9355C87.9221 29.78 87.8888 29.96 87.8355 30.24C87.7955 30.5067 87.7288 30.7533 87.6355 30.98L86.4555 34.54H89.4555ZM109.241 40.16C107.401 40.16 105.974 39.74 104.961 38.9C103.948 38.0467 103.441 36.8533 103.441 35.32V26.6C103.441 26.1733 103.841 25.96 104.641 25.96H105.321C106.121 25.96 106.521 26.1733 106.521 26.6V35.12C106.521 35.8267 106.774 36.4067 107.281 36.86C107.788 37.3133 108.441 37.54 109.241 37.54C110.041 37.54 110.694 37.3133 111.201 36.86C111.721 36.4067 111.981 35.8267 111.981 35.12V26.6C111.981 26.1733 112.381 25.96 113.181 25.96H113.841C114.641 25.96 115.041 26.1733 115.041 26.6V35.32C115.041 36.8533 114.534 38.0467 113.521 38.9C112.508 39.74 111.081 40.16 109.241 40.16ZM129.499 40.04C128.699 40.04 128.299 39.8267 128.299 39.4V28.62H125.119C124.906 28.62 124.753 28.54 124.659 28.38C124.566 28.22 124.519 27.9667 124.519 27.62V27C124.519 26.6533 124.566 26.4 124.659 26.24C124.753 26.08 124.906 26 125.119 26H134.579C134.793 26 134.946 26.08 135.039 26.24C135.133 26.4 135.179 26.6533 135.179 27V27.62C135.179 27.9667 135.133 28.22 135.039 28.38C134.946 28.54 134.793 28.62 134.579 28.62H131.399V39.4C131.399 39.8267 130.999 40.04 130.199 40.04H129.499Z" fill="#505050"/>
<defs>
<filter id="filter0_d" x="0" y="0.155548" width="73.8333" height="74.8444" filterUnits="userSpaceOnUse" color-interpolation-filters="sRGB">
<feFlood flood-opacity="0" result="BackgroundImageFix"/>
<feColorMatrix in="SourceAlpha" type="matrix" values="0 0 0 0 0 0 0 0 0 0 0 0 0 0 0 0 0 0 127 0"/>
<feOffset dy="4"/>
<feGaussianBlur stdDeviation="12.5"/>
<feColorMatrix type="matrix" values="0 0 0 0 0.458824 0 0 0 0 0.592157 0 0 0 0 0.988235 0 0 0 0.2 0"/>
<feBlend mode="normal" in2="BackgroundImageFix" result="effect1_dropShadow"/>
<feBlend mode="normal" in="SourceGraphic" in2="effect1_dropShadow" result="shape"/>
</filter>
</defs>
</svg>
