<svg width="94" height="96" viewBox="0 0 94 96" fill="none" xmlns="http://www.w3.org/2000/svg">
<g filter="url(#filter0_d)">
<rect x="25" y="21" width="44" height="45.8667" rx="5" fill="#DEF6FC"/>
</g>
<g clip-path="url(#clip0)">
<path d="M47 48.6064C51.0025 48.6064 54.2476 44.6651 54.2476 39.8032C54.2476 34.9413 53.1822 31 47 31C40.8177 31 39.7521 34.9413 39.7521 39.8032C39.7521 44.6651 42.9972 48.6064 47 48.6064Z" fill="#46B2B8"/>
<path d="M33.3106 62.0477C33.3094 61.7513 33.3082 61.9642 33.3106 62.0477V62.0477Z" fill="#46B2B8"/>
<path d="M60.6887 62.2793C60.6926 62.1981 60.69 61.7162 60.6887 62.2793V62.2793Z" fill="#46B2B8"/>
<path d="M60.6733 61.6923C60.5391 53.2228 59.433 50.8095 50.9685 49.2818C50.9685 49.2818 49.777 50.8001 46.9999 50.8001C44.2228 50.8001 43.0311 49.2818 43.0311 49.2818C34.659 50.7928 33.4856 53.1703 33.3313 61.4171C33.3187 62.0905 33.3128 62.1259 33.3105 62.0477C33.3111 62.1942 33.3117 62.4651 33.3117 62.9376C33.3117 62.9376 35.3269 67 46.9999 67C58.6728 67 60.6881 62.9376 60.6881 62.9376C60.6881 62.634 60.6883 62.423 60.6887 62.2794C60.6864 62.3277 60.6819 62.234 60.6733 61.6923Z" fill="#46B2B8"/>
</g>
<defs>
<filter id="filter0_d" x="0" y="0" width="94" height="95.8667" filterUnits="userSpaceOnUse" color-interpolation-filters="sRGB">
<feFlood flood-opacity="0" result="BackgroundImageFix"/>
<feColorMatrix in="SourceAlpha" type="matrix" values="0 0 0 0 0 0 0 0 0 0 0 0 0 0 0 0 0 0 127 0"/>
<feOffset dy="4"/>
<feGaussianBlur stdDeviation="12.5"/>
<feColorMatrix type="matrix" values="0 0 0 0 0.458824 0 0 0 0 0.592157 0 0 0 0 0.988235 0 0 0 0.2 0"/>
<feBlend mode="normal" in2="BackgroundImageFix" result="effect1_dropShadow"/>
<feBlend mode="normal" in="SourceGraphic" in2="effect1_dropShadow" result="shape"/>
</filter>
<clipPath id="clip0">
<rect width="36" height="36" fill="white" transform="translate(29 31)"/>
</clipPath>
</defs>
</svg>
